<?xml version="1.0" encoding="utf-8"?>
<!-- Generator: Adobe Illustrator 27.9.0, SVG Export Plug-In . SVG Version: 6.00 Build 0)  -->
<svg version="1.1" id="Layer_1" xmlns="http://www.w3.org/2000/svg" xmlns:xlink="http://www.w3.org/1999/xlink" x="0px" y="0px"
	 viewBox="0 0 512 512" style="enable-background:new 0 0 512 512;" xml:space="preserve">
<style type="text/css">
	.st0{fill:#B12B28;}
	.st1{fill:none;stroke:#FFFFFF;stroke-width:3;stroke-miterlimit:10;}
</style>
<path class="st0" d="M462.6,506H49.4C25.4,506,6,486.6,6,462.6V49.4C6,25.4,25.4,6,49.4,6h413.2c24,0,43.4,19.4,43.4,43.4v413.2
	C506,486.6,486.6,506,462.6,506z"/>
<g>
	<g id="fS21av_00000153701352484454107300000017924347025030952587_">
		<g>
			<path class="st1" d="M383.9,262.7c10.9,0,21.7,0,32.6,0c3.5,0,5.4-2.1,5.2-5.5c-0.2-3.3-0.5-6.6-0.9-9.9
				c-1.5-14.4-4.6-28.4-9.6-42.1c-8.6-23.5-21.7-44.3-39-62.3c-7.4-7.7-15.5-14.5-24.2-20.7c-17.4-12.4-36.4-21.3-57-26.8
				c-12-3.2-24.3-5-36.8-5.8c-3.6-0.2-5.6,1.7-5.6,5.3c0,21.7,0,43.3,0,65c0,2.7,1,3.7,3.7,3.8c3.3,0.1,6.5,0.5,9.7,1
				c20.9,3.1,39,11.8,54.3,26.3c9.8,9.3,17.3,20.2,22.7,32.6c4.8,11.1,7.6,22.6,8.5,34.7c0.3,3.9,0.9,4.5,4.8,4.5
				C362.9,262.7,373.4,262.7,383.9,262.7z"/>
			<path class="st1" d="M327.7,266.2c0.3,45.3-36.8,83-82.9,82.9c-45.6-0.1-82.7-37.2-82.6-82.7c0-46.7,38.3-83.2,83.5-82.9
				C290.8,183.9,327.7,220.8,327.7,266.2z"/>
			<path class="st1" d="M244.8,290.2c13.4,0.1,24.1-10.5,24.1-23.9c0-14-11.5-23.9-23.8-23.8c-13.3,0.1-24,10.5-24,23.6
				C221,279.5,231.5,290.2,244.8,290.2z"/>
			<path class="st1" d="M195.9,238.3c6.6,0,12.1,5.4,12.1,11.9c0.1,6.7-5.4,12.3-12.1,12.3c-6.7,0-12.4-5.4-12.2-12.1
				C183.9,243.6,188.9,238.3,195.9,238.3z"/>
			<path class="st1" d="M214.6,320.1c-6.7,0-11.9-5.3-12-12c-0.1-6.9,5.4-11.9,12-12.1c6.7-0.2,12.2,5.4,12.2,12.1
				C226.8,314.7,221.4,320.1,214.6,320.1z"/>
			<path class="st1" d="M275.2,320.1c-6.6,0-12.2-5.5-12.1-12c0.1-6.7,5.6-12.2,12.2-12.2c6.6,0.1,12.1,5.6,12.1,12.1
				C287.4,314.8,282,320.1,275.2,320.1z"/>
			<path class="st1" d="M244.9,226.8c-6.8,0-12.2-5.5-12.1-12.2c0.1-6.6,5.7-12,12.2-12c6.7,0.1,12.1,5.6,12.1,12.3
				C257,221.5,251.5,226.9,244.9,226.8z"/>
			<path class="st1" d="M281.9,250.4c0-6.8,5.2-12.1,12-12.1c6.7,0,12.2,5.4,12.2,12.1c0,6.6-5.4,12.1-12.1,12.1
				C287.3,262.5,282,257.2,281.9,250.4z"/>
		</g>
	</g>
	<path class="st1" d="M401.7,262.7c0,1.3,0.1,2.6,0.1,3.9c0,86-69.7,155.7-155.7,155.7c-86,0-155.7-69.7-155.7-155.7
		S160,111,246,111c0.8,0,1.7,0,2.5,0"/>
</g>
</svg>
