<?xml version="1.0" encoding="utf-8"?>
<!-- Generator: Adobe Illustrator 27.9.0, SVG Export Plug-In . SVG Version: 6.00 Build 0)  -->
<svg version="1.1" id="Layer_1" xmlns="http://www.w3.org/2000/svg" xmlns:xlink="http://www.w3.org/1999/xlink" x="0px" y="0px"
	 viewBox="0 0 512 512" style="enable-background:new 0 0 512 512;" xml:space="preserve">
<style type="text/css">
	.st0{fill:#B12B28;}
	.st1{fill:none;stroke:#FFFFFF;stroke-width:3;stroke-miterlimit:10;}
</style>
<path class="st0" d="M462.6,506H49.4C25.4,506,6,486.6,6,462.6V49.4C6,25.4,25.4,6,49.4,6h413.2c24,0,43.4,19.4,43.4,43.4v413.2
	C506,486.6,486.6,506,462.6,506z"/>
<g id="Qf8M5y_00000173857129386240456070000008755695230206448293_">
	<g>
		<path class="st1" d="M88.7,256.2c-0.2,91.3,74.3,165.5,165.7,166.2c92.8,0.8,168.9-73.3,168.9-166.2
			c0.1-92.5-75.3-167.6-169.4-166.6C162.1,90.6,88.4,165.4,88.7,256.2z"/>
		<path class="st1" d="M253.7,129.7c-3.2-0.1-8.5,0.3-13.9,0.9c-15.8,1.8-30.7,6.5-44.7,14.1c-20.1,10.9-36.3,26.1-48.2,45.7
			c-7.8,12.8-13.2,26.6-16,41.4c-0.3,1.4-0.4,2.8,1,3.8c1.4,1.1,2.8,0.5,4.1-0.3c16.1-8.6,33.1-15,50.9-19
			c11.8-2.7,23.2-6.4,33.6-12.9c12.2-7.6,25.3-10.9,39.6-10c11,0.6,21.1,3.8,30.5,9.6c8.3,5.1,17.1,9.3,26.7,11.4
			c20.6,4.5,40.3,11.2,58.9,21c1.2,0.6,2.4,1.1,3.6,0.2c1.3-1,1.4-2.3,1.1-3.8c-5.9-29.7-20.5-54.2-43.8-73.4
			C313.6,139,286.3,129.6,253.7,129.7z"/>
		<path class="st1" d="M289.1,320.7c0,14.4,5.6,26.7,16,36.6c7.1,6.8,17.2,7.4,25.1,1.7c7.9-5.7,15.1-12,21.5-19.3
			c8.9-10.1,16.1-21.2,21.3-33.6c4.3-10.3,0.5-21.2-9-26.9c-9.7-5.9-20.3-8.1-31.6-7c-9.1,0.9-16,4.5-20,13.2
			c-2.5,5.4-6.2,10.2-10.6,14.4c-1.4,1.4-2.8,2.9-4.3,4C291.2,308.3,288.5,314.3,289.1,320.7z"/>
		<path class="st1" d="M137.3,297.7c-0.1,3.1,0.6,6,1.8,8.9c2.8,6.5,6.2,12.6,10.1,18.5c8.9,13.6,19.9,25.2,33.3,34.3
			c6.3,4.3,13,4.6,19.8,1.1c4.7-2.3,7.9-6.3,11-10.3c6.1-8.1,9.2-17.4,9.7-27.5c0.3-6.7-1-13-6.7-17.4c-7.6-5.9-13.3-13.3-17.7-21.8
			c-2.5-4.8-6.2-8.5-11.5-9.9c-12.9-3.4-25.3-2-37,4.3C142.1,282.2,137.4,288.5,137.3,297.7z"/>
		<path class="st1" d="M255.1,240.1c-8.9,0-16.1,7.1-16.2,15.9c-0.1,8.5,7.4,16,16.1,16c8.6,0,15.8-7.2,15.9-15.9
			C270.9,247.4,263.7,240.1,255.1,240.1z"/>
	</g>
</g>
</svg>
